<svg id="visual" viewBox="0 0 736 736" width="736" height="736" xmlns="http://www.w3.org/2000/svg" xmlns:xlink="http://www.w3.org/1999/xlink" version="1.1"><g transform="translate(400.52765367174356 320.7307254671329)"><path d="M255.8 -284.2C317 -253.4 342.2 -159.1 328.2 -81.1C314.2 -3.2 261 58.4 226 141.2C191 224.1 174.2 328.2 117.4 369.1C60.5 410 -36.3 387.8 -123.2 350.8C-210.2 313.9 -287.4 262.2 -338.9 188.3C-390.5 114.3 -416.3 18.2 -380.2 -46.3C-344.1 -110.7 -246 -143.5 -172.3 -172C-98.6 -200.5 -49.3 -224.7 24 -253.3C97.3 -281.9 194.6 -314.9 255.8 -284.2" fill="#BB004B"></path></g></svg>